# xmcd CD database file
#
# Track frame offsets:
#	150
#	13960
#	25814
#	37910
#	52842
#	63143
#	76554
#	86797
#	97806
#	110150
#	124106
#	134392
#	144939
#	155846
#	165522
#	179539
#	192351
#	204188
#
# Disc length: 2884 seconds
#
# Revision: 1
# Processed by: cddbd v1.5.2PL0 Copyright (c) Steve Scherf et al.
# Submitted via: jetAudio 7
#
DISCID=e40b4212
DTITLE=Dave Dudley - King Of The Road
DYEAR=1900
DGENRE=Country
TTITLE0=I Was Country Before Barbara Mandrell
TTITLE1=Six Days On The Road
TTITLE2=Eagles Fly Alone
TTITLE3=Deutschland Autobahn
TTITLE4=Fly Away Again
TTITLE5=Counterfeit Cowboy
TTITLE6=Don't Need The Rain
TTITLE7=Get Me Back To Tennessee
TTITLE8=Homer And Cole
TTITLE9=Think I'll Send Him Roses
TTITLE10=Truck Driving Son-Of-A-Gun
TTITLE11=Rollin' Rig
TTITLE12=One More Plane
TTITLE13=My Love Train Is Rolling On Your Track
TTITLE14=Morning Sun
TTITLE15=Me And Ole C.B.
TTITLE16=Mary Lou, You Took The Party With You
TTITLE17=Now Come It Took So Long To Say Goodbye
EXTD=
EXTT0=
EXTT1=
EXTT2=
EXTT3=
EXTT4=
EXTT5=
EXTT6=
EXTT7=
EXTT8=
EXTT9=
EXTT10=
EXTT11=
EXTT12=
EXTT13=
EXTT14=
EXTT15=
EXTT16=
EXTT17=
PLAYORDER=
